<?xml version="1.0" standalone="no"?><!DOCTYPE svg PUBLIC "-//W3C//DTD SVG 1.1//EN" "http://www.w3.org/Graphics/SVG/1.1/DTD/svg11.dtd"><svg t="1537950363103" class="icon" style="" viewBox="0 0 1024 1024" version="1.1" xmlns="http://www.w3.org/2000/svg" p-id="3294" xmlns:xlink="http://www.w3.org/1999/xlink" width="200" height="200"><defs><style type="text/css"></style></defs><path d="M320.1 421m-49 0a49 49 0 1 0 98 0 49 49 0 1 0-98 0Z" fill="#F57C00" p-id="3295"></path><path d="M684.2 421m-49 0a49 49 0 1 0 98 0 49 49 0 1 0-98 0Z" fill="#F57C00" p-id="3296"></path><path d="M638.3 728.3c-4.9 0-9.7-1.9-13.4-5.6-61.6-61.6-161.8-61.6-223.4 0-7.4 7.4-19.5 7.4-26.9 0s-7.4-19.4 0-26.9c76.4-76.4 200.8-76.4 277.2 0 7.4 7.4 7.4 19.5 0 26.9-3.8 3.7-8.7 5.6-13.5 5.6z" fill="#F57C00" p-id="3297"></path><path d="M511.3 958.5c-60.2 0-118.7-11.8-173.7-35.1-53.1-22.5-100.9-54.7-141.8-95.6-41-41-73.2-88.7-95.6-141.8-23.3-55-35.1-113.5-35.1-173.7s11.8-118.7 35.1-173.7c22.5-53.1 54.7-100.9 95.6-141.8s88.7-73.2 141.8-95.6c55-23.3 113.5-35.1 173.7-35.1S630 77.7 685 101c53.1 22.5 100.9 54.7 141.8 95.6 41 41 73.2 88.7 95.6 141.8 23.3 55 35.1 113.5 35.1 173.7 0 67.4-14.7 132.3-43.6 192.6-4.5 9.5-15.9 13.5-25.3 8.9-9.5-4.5-13.5-15.9-8.9-25.3 26.5-55.2 39.9-114.5 39.9-176.2 0-225.1-183.2-408.3-408.3-408.3S103.1 287.1 103.1 512.2s183.2 408.3 408.3 408.3c85.2 0 166.9-26 236.1-75.2 8.6-6.1 20.4-4.1 26.5 4.5 6.1 8.6 4.1 20.4-4.5 26.5-75.7 53.8-165 82.2-258.2 82.2z" fill="#F57C00" p-id="3298"></path></svg>