<?xml version="1.0" standalone="no"?><!DOCTYPE svg PUBLIC "-//W3C//DTD SVG 1.1//EN" "http://www.w3.org/Graphics/SVG/1.1/DTD/svg11.dtd"><svg t="1537950456851" class="icon" style="" viewBox="0 0 1024 1024" version="1.1" xmlns="http://www.w3.org/2000/svg" p-id="4892" xmlns:xlink="http://www.w3.org/1999/xlink" width="200" height="200"><defs><style type="text/css"></style></defs><path d="M0 0m89.043478 0l845.913044 0q89.043478 0 89.043478 89.043478l0 845.913044q0 89.043478-89.043478 89.043478l-845.913044 0q-89.043478 0-89.043478-89.043478l0-845.913044q0-89.043478 89.043478-89.043478Z" fill="#F8CF35" p-id="4893"></path><path d="M782.692174 389.12a271.582609 271.582609 0 0 0-145.14087-145.14087A267.130435 267.130435 0 0 0 531.589565 222.608696v52.980869A219.937391 219.937391 0 1 1 311.652174 495.081739a227.951304 227.951304 0 0 1 10.24-67.227826l49.864348 27.603478V284.493913l-73.015652 44.521739L222.608696 372.646957 275.589565 400.695652a264.45913 264.45913 0 0 0-16.473043 93.050435 270.692174 270.692174 0 0 0 79.693913 192.77913 270.692174 270.692174 0 0 0 192.77913 80.139131 267.130435 267.130435 0 0 0 192.779131-80.139131 264.45913 264.45913 0 0 0 58.323478-86.372174 267.130435 267.130435 0 0 0 0-212.368695z" fill="#453D3D" p-id="4894"></path></svg>