<?xml version="1.0" standalone="no"?><!DOCTYPE svg PUBLIC "-//W3C//DTD SVG 1.1//EN" "http://www.w3.org/Graphics/SVG/1.1/DTD/svg11.dtd"><svg t="1537950430477" class="icon" style="" viewBox="0 0 1024 1024" version="1.1" xmlns="http://www.w3.org/2000/svg" p-id="4076" xmlns:xlink="http://www.w3.org/1999/xlink" width="200" height="200"><defs><style type="text/css"></style></defs><path d="M850.7 1014H173.3C84.2 1014 12 941.8 12 852.7V175.3C12 86.2 84.2 14 173.3 14h677.4c89.1 0 161.3 72.2 161.3 161.3v677.4c0 89.1-72.2 161.3-161.3 161.3z" fill="#F26754" p-id="4077"></path><path d="M705.9 742.7c-5.6 0-11.3-0.9-16.9-2.7L228.5 589.6c-25.2-8.2-29.3-25.4-29.9-32.4-0.6-7 0.6-24.7 24-37l550-289.5c16-8.4 32-8.2 44 0.6 12 8.8 17.2 24 14.1 41.7l-74.2 426.4c-2.7 15.3-11.5 28.4-24.3 36.1-7.8 4.8-17 7.2-26.3 7.2zM267.2 551.4L704.1 694c0.8 0.3 2.3 0.6 3.3 0s1.4-2.1 1.5-2.9l71.3-409.7-513 270zM243.5 564z" fill="#FFFFFF" p-id="4078"></path><path d="M466.3 847.4c-2.8 0-5.6-0.5-8.4-1.5-9.5-3.5-15.8-12.6-15.8-22.7V636.5c0-6.2 2.4-12.3 6.7-16.8l152.6-159c9.3-9.6 24.6-10 34.2-0.7s10 24.6 0.7 34.2l-145.8 152v111.4l53.3-62.3c8.7-10.2 24-11.4 34.1-2.7 10.2 8.7 11.4 24 2.7 34.1l-95.9 112.1c-4.7 5.6-11.5 8.6-18.4 8.6z" fill="#FFFFFF" p-id="4079"></path></svg>