<?xml version="1.0" standalone="no"?><!DOCTYPE svg PUBLIC "-//W3C//DTD SVG 1.1//EN" "http://www.w3.org/Graphics/SVG/1.1/DTD/svg11.dtd"><svg t="1537949923155" class="icon" style="" viewBox="0 0 1024 1024" version="1.1" xmlns="http://www.w3.org/2000/svg" p-id="2490" xmlns:xlink="http://www.w3.org/1999/xlink" width="200" height="200"><defs><style type="text/css"></style></defs><path d="M512 1011.2c275.697778 0 499.2-223.502222 499.2-499.2S787.697778 12.8 512 12.8 12.8 236.302222 12.8 512 236.302222 1011.2 512 1011.2z m0-31.288889C253.582222 979.911111 44.088889 770.417778 44.088889 512 44.088889 253.582222 253.582222 44.088889 512 44.088889c258.417778 0 467.911111 209.493333 467.911111 467.911111 0 258.417778-209.493333 467.911111-467.911111 467.911111z" fill="#5CBE5C" p-id="2491"></path><path d="M318.435556 709.546667c3.740444 3.043556 91.022222 71.424 211.228444 71.424 121.6 0 186.951111-70.016 189.511111-73.045334 5.603556-6.072889 5.134222-15.644444-0.938667-21.233777-6.058667-5.831111-15.644444-5.148444-21.233777 0.924444-0.469333 0.711111-59.747556 63.246222-167.338667 63.246222-109.696 0-191.616-64.170667-192.312889-64.64-6.542222-5.376-15.872-4.209778-21.233778 2.332445a15.075556 15.075556 0 0 0 2.332445 21.006222zM213.333333 408.803556a81.692444 81.692444 0 1 0 163.370667 0 81.692444 81.692444 0 0 0-163.370667 0zM640 408.803556a81.692444 81.692444 0 1 0 163.370667 0 81.692444 81.692444 0 0 0-163.370667 0z" fill="#5CBE5C" p-id="2492"></path></svg>